<svg width="44" height="44" viewBox="0 0 44 44" fill="none" xmlns="http://www.w3.org/2000/svg">
<path d="M7.33344 18.3333L6.03707 19.6297L4.74072 18.3333L6.03707 17.037L7.33344 18.3333ZM38.5001 33C38.5001 34.0125 37.6793 34.8333 36.6668 34.8333C35.6542 34.8333 34.8334 34.0125 34.8334 33H38.5001ZM15.2037 28.7963L6.03707 19.6297L8.62981 17.037L17.7965 26.2037L15.2037 28.7963ZM6.03707 17.037L15.2037 7.8703L17.7965 10.463L8.62981 19.6297L6.03707 17.037ZM7.33344 16.5H25.6668V20.1667H7.33344V16.5ZM38.5001 29.3333V33H34.8334V29.3333H38.5001ZM25.6668 16.5C32.7544 16.5 38.5001 22.2457 38.5001 29.3333H34.8334C34.8334 24.2708 30.7293 20.1667 25.6668 20.1667V16.5Z" fill="#00AAFF"/>
</svg>
