<svg width="49" height="48" viewBox="0 0 49 48" fill="none" xmlns="http://www.w3.org/2000/svg">
<path fill-rule="evenodd" clip-rule="evenodd" d="M24.5199 0.141174C11.2375 0.141174 0.5 11.0117 0.5 24.4601C0.5 35.21 7.37988 44.3097 16.9241 47.5303C18.1174 47.7724 18.5545 47.0071 18.5545 46.3632C18.5545 45.7994 18.5151 43.8669 18.5151 41.8534C11.8334 43.3032 10.442 38.9545 10.442 38.9545C9.36818 36.136 7.77715 35.4116 7.77715 35.4116C5.59022 33.9219 7.93645 33.9219 7.93645 33.9219C10.3623 34.083 11.6353 36.4182 11.6353 36.4182C13.7824 40.122 17.2422 39.0755 18.6341 38.4312C18.8328 36.8609 19.4695 35.7738 20.1455 35.17C14.8163 34.6062 9.20937 32.5127 9.20937 23.1714C9.20937 20.5141 10.1632 18.3399 11.6746 16.6491C11.4361 16.0453 10.6008 13.5485 11.9135 10.2068C11.9135 10.2068 13.9417 9.56248 18.5146 12.7031C20.4725 12.1707 22.4916 11.8999 24.5199 11.8977C26.548 11.8977 28.6154 12.1798 30.5246 12.7031C35.0981 9.56248 37.1262 10.2068 37.1262 10.2068C38.4389 13.5485 37.6031 16.0453 37.3646 16.6491C38.9158 18.3399 39.8303 20.5141 39.8303 23.1714C39.8303 32.5127 34.2234 34.5657 28.8544 35.17C29.7296 35.9349 30.4848 37.3841 30.4848 39.6793C30.4848 42.9405 30.4454 45.5578 30.4454 46.3627C30.4454 47.0071 30.883 47.7724 32.0758 47.5308C41.62 44.3092 48.4999 35.21 48.4999 24.4601C48.5392 11.0117 37.7624 0.141174 24.5199 0.141174Z" fill="white"/>
</svg>
