<svg width="157" height="140" viewBox="0 0 157 140" fill="none" xmlns="http://www.w3.org/2000/svg">
<path d="M78.5 22.1894L74.5538 26.0799C75.5864 27.1788 77.0111 27.7996 78.5 27.7996C79.9889 27.7996 81.4136 27.1788 82.4462 26.0799L78.5 22.1894ZM59.7042 118.097C48.6363 109.159 36.534 100.431 26.9331 89.3566C17.5199 78.4982 10.9535 65.8287 10.9535 49.3914H0C0 69.3303 8.10923 84.5415 18.743 96.807C29.1891 108.856 42.5052 118.496 52.923 126.909L59.7042 118.097ZM10.9535 49.3914C10.9535 33.3022 19.8285 19.8098 31.943 14.1373C43.7122 8.62641 59.5261 10.0858 74.5538 26.0799L82.4462 18.2989C64.6146 -0.67883 43.9168 -3.80658 27.3893 3.93235C11.207 11.5096 0 29.1042 0 49.3914H10.9535ZM52.923 126.909C56.6635 129.929 60.679 133.15 64.7483 135.586C68.8164 138.021 73.4585 140 78.5 140V128.779C76.2392 128.779 73.579 127.877 70.2747 125.898C66.9718 123.921 63.5454 121.199 59.7042 118.097L52.923 126.909ZM104.077 126.909C114.495 118.496 127.811 108.856 138.257 96.807C148.891 84.5415 157 69.3303 157 49.3914H146.047C146.047 65.8287 139.48 78.4982 130.067 89.3566C120.466 100.431 108.364 109.159 97.2962 118.097L104.077 126.909ZM157 49.3914C157 29.1042 145.793 11.5096 129.61 3.93235C113.083 -3.80658 92.3854 -0.67883 74.5538 18.2989L82.4462 26.0799C97.4736 10.0858 113.288 8.62641 125.057 14.1373C137.171 19.8098 146.047 33.3022 146.047 49.3914H157ZM97.2962 118.097C93.4544 121.199 90.0282 123.921 86.7253 125.898C83.421 127.877 80.7608 128.779 78.5 128.779V140C83.5415 140 88.1836 138.021 92.2517 135.586C96.3213 133.15 100.336 129.929 104.077 126.909L97.2962 118.097Z" fill="#00AAFF"/>
</svg>
