<svg width="60" height="60" viewBox="0 0 60 60" fill="none" xmlns="http://www.w3.org/2000/svg">
<path d="M30 0C13.4193 0 0 13.4176 0 30C0 46.5809 13.4174 60 30 60C46.5809 60 60 46.5824 60 30C60 13.4191 46.5824 0 30 0ZM40.8091 33.3302L26.7122 41.4756C25.523 42.1628 24.0566 42.1639 22.8654 41.4766C21.675 40.7897 20.9418 39.5197 20.9418 38.1455V21.8546C20.9418 20.4803 21.6751 19.2104 22.8654 18.5235C23.4602 18.1801 24.1241 18.0084 24.788 18.0084C25.4524 18.0084 26.117 18.1805 26.7122 18.5243L40.8093 26.6696C41.9986 27.3568 42.7311 28.6262 42.7311 29.9999C42.7311 31.3737 41.9985 32.6429 40.8091 33.3302Z" fill="#00AAFF"/>
</svg>
