<svg width="60" height="60" viewBox="0 0 60 60" fill="none" xmlns="http://www.w3.org/2000/svg">
<path d="M30 0C13.4316 0 0 13.4311 0 30C0 46.5689 13.4316 60 30 60C46.5684 60 60 46.5689 60 30C60 13.4311 46.5686 0 30 0ZM24.3373 44.3899C24.3373 42.326 26.0108 40.6525 28.0747 40.6525C30.1371 40.6525 31.8107 42.326 31.8107 44.3899C31.8107 46.4518 30.1371 48.1263 28.0747 48.1263C26.0108 48.1263 24.3373 46.4518 24.3373 44.3899ZM40.2686 25.6467C39.8471 26.7943 39.2371 27.79 38.5465 28.6181C37.1582 30.2761 35.5127 31.2804 34.1588 32.0214C33.2542 32.5105 32.4557 32.8873 31.9593 33.1662C31.6188 33.3541 31.4344 33.5119 31.3433 33.6145C31.2533 33.723 31.2227 33.7676 31.168 33.9457C31.136 34.0639 31.1026 34.2518 31.1026 34.5423C31.1026 35.3471 31.1026 36.0086 31.1026 36.0086C31.1026 36.767 30.4876 37.3829 29.7288 37.3829H26.418C25.6593 37.3829 25.0432 36.767 25.0432 36.0086C25.0432 36.0086 25.0432 35.347 25.0432 34.5423C25.0432 33.7878 25.1313 33.0489 25.325 32.3419C25.5168 31.6378 25.819 30.9687 26.2049 30.3855C26.9782 29.2039 28.0262 28.4166 29.0155 27.8684C29.8828 27.3909 30.7409 26.9947 31.5369 26.5464C32.3325 26.1019 33.042 25.6194 33.5645 25.0965C33.9146 24.7479 34.1868 24.3875 34.395 23.9809C34.6686 23.4386 34.8585 22.8012 34.8628 21.8259C34.8642 21.5373 34.781 21.1577 34.5544 20.7238C34.3287 20.2918 33.9607 19.8221 33.4688 19.4007C32.4785 18.5514 31.0262 17.9306 29.3609 17.9334C27.4525 17.9402 26.175 18.3877 25.1905 18.9436C24.2108 19.5033 23.898 20.068 23.898 20.068C23.3979 20.5037 22.6555 20.5192 22.1373 20.1048L19.5932 18.0661C19.2745 17.8114 19.0867 17.4288 19.078 17.0201C19.0706 16.6124 19.245 16.222 19.5539 15.9538C19.5539 15.9538 20.3467 14.7315 22.1849 13.6827C24.0154 12.6289 26.4414 11.8677 29.361 11.8746C31.7299 11.8746 33.9124 12.5264 35.7205 13.5927C37.5292 14.6647 38.9897 16.1408 39.9218 17.9141C40.5407 19.0946 40.9208 20.4254 40.9218 21.8258C40.9232 23.208 40.6931 24.499 40.2686 25.6467Z" fill="#00AAFF"/>
</svg>
