<svg width="48" height="48" viewBox="0 0 48 48" fill="none" xmlns="http://www.w3.org/2000/svg">
<path d="M33.812 14.5194C33.8215 14.5194 33.8343 14.5194 33.847 14.5194C34.1801 14.5194 34.4892 14.6214 34.7426 14.797L34.7378 14.7939C34.9227 14.9523 35.047 15.175 35.0773 15.4259V15.4306C35.1092 15.622 35.1267 15.8415 35.1267 16.0658C35.1267 16.1678 35.1235 16.2681 35.1155 16.3685V16.3544C34.757 20.0698 33.2016 29.0798 32.4112 33.239C32.0765 35.0003 31.4183 35.59 30.7809 35.6464C29.396 35.7734 28.3442 34.7462 27.0024 33.8805C24.902 32.5239 23.7147 31.6801 21.6765 30.358C19.3195 28.832 20.8478 27.9898 22.1896 26.6191C22.5418 26.2584 28.647 20.7928 28.7665 20.2972C28.7729 20.2674 28.7761 20.2344 28.7761 20.1999C28.7761 20.0776 28.7299 19.9663 28.655 19.8816C28.5721 19.8282 28.4685 19.7984 28.3602 19.7984C28.2884 19.7984 28.2199 19.8126 28.1562 19.8361L28.1594 19.8345C27.949 19.8816 24.5939 22.0636 18.094 26.3807C17.3849 26.9312 16.4892 27.2794 15.5139 27.3202H15.5044C14.1227 27.1555 12.8685 26.8528 11.6781 26.4215L11.796 26.4591C10.3012 25.9792 9.11394 25.7267 9.21594 24.9143C9.27012 24.4919 9.86189 24.0596 10.9912 23.6173C17.9479 20.6344 22.587 18.6682 24.9084 17.7188C27.4693 16.3811 30.4382 15.2801 33.5602 14.5665L33.8104 14.5179L33.812 14.5194ZM23.9442 0.380951C10.7139 0.412318 0 10.975 0 24C0 37.0438 10.7442 47.619 24 47.619C37.2558 47.619 48 37.0454 48 24C48 10.975 37.2861 0.412318 24.059 0.380951H24.0558C24.0186 0.380951 23.9814 0.380951 23.9442 0.380951Z" fill="white"/>
</svg>
